<?xml version="1.0" encoding="utf-8"?>
<!-- Generator: Adobe Illustrator 25.0.1, SVG Export Plug-In . SVG Version: 6.00 Build 0)  -->
<svg version="1.1" id="圖層_1" xmlns="http://www.w3.org/2000/svg" xmlns:xlink="http://www.w3.org/1999/xlink" x="0px" y="0px"
	 viewBox="0 0 24 24" style="enable-background:new 0 0 24 24;" xml:space="preserve">
<style type="text/css">
	.st0{fill:none;}
	.st1{display:none;}
	.st2{display:inline;fill:#222B45;}
	.st3{fill:#222B45;}
</style>
<g>
	<rect class="st0" width="24" height="24"/>
	<g class="st1">
		<path class="st2" d="M9,8.9v7.4h13.6V8.9H9z M14.1,14.4c-0.4,0.3-0.9,0.5-1.5,0.5c-0.7,0-1.2-0.2-1.6-0.6
			c-0.4-0.4-0.6-0.9-0.6-1.6c0-0.6,0.2-1.2,0.6-1.6c0.4-0.4,0.9-0.6,1.6-0.6c0.5,0,1,0.1,1.3,0.2l0.1,0.1l-0.4,0.8l-0.2-0.1
			c-0.2-0.1-0.5-0.2-0.9-0.2c-0.4,0-0.7,0.1-0.9,0.4c-0.2,0.3-0.3,0.6-0.3,1.1c0,0.4,0.1,0.7,0.3,1c0.2,0.2,0.5,0.4,0.9,0.4
			c0.4,0,0.7-0.1,0.9-0.4l0.1-0.1L14.1,14.4L14.1,14.4z M17.3,14.5c-0.3,0.2-0.7,0.4-1.2,0.4c-0.4,0-0.8-0.1-1.1-0.3l-0.1-0.1
			l0.4-0.8l0.2,0.1c0.1,0.1,0.2,0.1,0.4,0.2c0.2,0.1,0.3,0.1,0.4,0.1c0.2,0,0.4-0.1,0.5-0.1c0.1-0.1,0.2-0.2,0.2-0.3
			c0-0.1,0-0.2-0.1-0.3c0-0.1-0.2-0.2-0.6-0.3l-0.4-0.1c-0.4-0.1-0.6-0.3-0.7-0.5s-0.2-0.4-0.2-0.7c0-0.4,0.1-0.6,0.4-0.9
			c0.3-0.2,0.6-0.3,1-0.3c0.6,0,0.9,0.1,1.2,0.2l0.1,0.1l-0.3,0.8l-0.2-0.1c-0.1-0.1-0.2-0.1-0.4-0.1c-0.2-0.1-0.3-0.1-0.4-0.1
			c-0.2,0-0.3,0-0.4,0.1c-0.1,0.1-0.1,0.2-0.1,0.3c0,0.1,0,0.1,0.1,0.2c0,0.1,0.1,0.1,0.1,0.2c0.1,0,0.2,0.1,0.5,0.2l0.4,0.2
			c0.4,0.1,0.6,0.3,0.7,0.5c0.1,0.2,0.2,0.5,0.2,0.8C17.7,14,17.6,14.3,17.3,14.5z M20.7,14.5c-0.3,0.2-0.7,0.4-1.2,0.4
			c-0.4,0-0.8-0.1-1.1-0.3l-0.1-0.1l0.4-0.8l0.2,0.1c0.1,0.1,0.2,0.1,0.4,0.2c0.2,0.1,0.3,0.1,0.4,0.1c0.2,0,0.4-0.1,0.5-0.1
			c0.1-0.1,0.2-0.2,0.2-0.3c0-0.1,0-0.2-0.1-0.3c0-0.1-0.2-0.2-0.6-0.3l-0.4-0.1c-0.4-0.1-0.6-0.3-0.7-0.5c-0.1-0.2-0.2-0.4-0.2-0.7
			c0-0.4,0.1-0.6,0.4-0.9c0.3-0.2,0.6-0.3,1-0.3c0.6,0,0.9,0.1,1.2,0.2l0.1,0.1l-0.3,0.8l-0.2-0.1c-0.1-0.1-0.2-0.1-0.4-0.1
			c-0.2-0.1-0.3-0.1-0.4-0.1c-0.2,0-0.3,0-0.4,0.1c-0.1,0.1-0.1,0.2-0.1,0.3c0,0.1,0,0.1,0.1,0.2c0,0.1,0.1,0.1,0.1,0.2
			c0.1,0,0.2,0.1,0.5,0.2l0.4,0.2c0.4,0.1,0.6,0.3,0.7,0.5c0.1,0.2,0.2,0.5,0.2,0.8C21.2,14,21,14.3,20.7,14.5z"/>
		<polygon class="st2" points="16.8,19.3 10.1,19.3 9.7,19.7 9,20.4 17.9,20.4 17.9,17.1 16.8,17.1 		"/>
		<polygon class="st2" points="5,6.4 7.7,6.4 7.7,3.1 16.8,3.1 16.8,7.9 17.9,7.9 17.9,1.9 6.8,1.9 3.8,5.6 3.8,11.6 5,11.6 		"/>
		<path class="st2" d="M7.5,18.2L7.5,18.2c0-1.8,0-3.6,0-5.3H3.1c0,1.8,0,3.6,0,5.3H1.3l4,4.5l2.6-3l1.4-1.5H7.5z"/>
	</g>
	<g>
		<g id="Solid">
			<path class="st3" d="M14.5,12.3L12.8,14V5.2c0-0.5-0.4-0.8-0.8-0.8c-0.4,0-0.8,0.4-0.8,0.8V14l-1.7-1.7c-0.3-0.3-0.8-0.3-1.1,0
				c-0.3,0.3-0.3,0.8,0,1.1l0,0l3,3c0.3,0.3,0.8,0.3,1.1,0l0,0l3-3c0.3-0.3,0.3-0.8,0-1.1C15.3,12,14.8,12,14.5,12.3L14.5,12.3
				L14.5,12.3z"/>
			<path class="st3" d="M19,11.3c-0.5,0-0.8,0.4-0.8,0.8v6.2H5.8v-6.2c0-0.5-0.4-0.8-0.8-0.8c-0.4,0-0.8,0.4-0.8,0.8v6.5
				c0,0.7,0.6,1.4,1.4,1.4h12.9c0.7,0,1.4-0.6,1.4-1.4v-6.5C19.8,11.6,19.4,11.3,19,11.3z"/>
		</g>
	</g>
</g>
</svg>
